<svg xmlns="http://www.w3.org/2000/svg" width="77.374" height="16.061" viewBox="0 0 77.374 16.061">
  <g id="Group_1452" data-name="Group 1452" transform="translate(-838.969 -422.948)">
    <path id="Path_400" data-name="Path 400" d="M190.137,5.1a2.176,2.176,0,0,0-1.438-.449h-.457a2.169,2.169,0,0,0-1.414.459,2.066,2.066,0,0,0-.563,1.676v7.355a2.059,2.059,0,0,0,.563,1.676,2.238,2.238,0,0,0,1.461.459h.457a2.029,2.029,0,0,0,1.391-.47,2.132,2.132,0,0,0,.54-1.666V6.788a2.117,2.117,0,0,0-.54-1.687" transform="translate(707.113 418.41)"/>
    <path id="Path_401" data-name="Path 401" d="M199.447,5.965a3.393,3.393,0,0,0-1.253-.989,4.288,4.288,0,0,0-1.871-.369,4.031,4.031,0,0,0-2.263.584A5.172,5.172,0,0,0,192.575,6.7a3.014,3.014,0,0,0-.426-.955,2.265,2.265,0,0,0-1.329-.932,3.51,3.51,0,0,0-.768-.091,3.353,3.353,0,0,0-1.186.195c-.34.132-.514.234-.514.309v8.987a2.08,2.08,0,0,0,.558,1.676,2.208,2.208,0,0,0,1.435.459h.462a2.114,2.114,0,0,0,1.4-.459,2.106,2.106,0,0,0,.55-1.676v-5.1a2.1,2.1,0,0,1,.69-.657,1.94,1.94,0,0,1,1.035-.265,1.354,1.354,0,0,1,1.08.452,1.8,1.8,0,0,1,.392,1.227v4.342a2.071,2.071,0,0,0,.563,1.676,2.23,2.23,0,0,0,1.458.459h.436a2.1,2.1,0,0,0,1.414-.47,2.138,2.138,0,0,0,.537-1.666v-5.1a6.606,6.606,0,0,0-.218-1.713,3.984,3.984,0,0,0-.7-1.435" transform="translate(710.443 418.34)"/>
    <path id="Path_402" data-name="Path 402" d="M195.678,7.293a2.46,2.46,0,1,0,2.46,2.46,2.459,2.459,0,0,0-2.46-2.46" transform="translate(718.204 422.623)"/>
    <path id="Path_403" data-name="Path 403" d="M181.319,6.253a5.484,5.484,0,0,0-1.952-1.22,7.2,7.2,0,0,0-2.538-.426,7.408,7.408,0,0,0-2.561.426,5.725,5.725,0,0,0-1.988,1.2,5.3,5.3,0,0,0-1.274,1.887,6.422,6.422,0,0,0-.446,2.434,6.765,6.765,0,0,0,.433,2.484,5.3,5.3,0,0,0,1.24,1.881,5.468,5.468,0,0,0,1.954,1.209,8.045,8.045,0,0,0,5.149,0,5.536,5.536,0,0,0,1.959-1.209,5.362,5.362,0,0,0,1.266-1.881,6.49,6.49,0,0,0,.449-2.46,6.471,6.471,0,0,0-.439-2.445,5.284,5.284,0,0,0-1.253-1.884m-4.5,6.765a2.461,2.461,0,1,1,2.458-2.46,2.461,2.461,0,0,1-2.458,2.46" transform="translate(682.062 418.34)"/>
    <path id="Path_404" data-name="Path 404" d="M176.811,6.207a4.6,4.6,0,0,0-1.65-1.183,5.358,5.358,0,0,0-2.141-.415,3.851,3.851,0,0,0-2.157.6A3.32,3.32,0,0,0,169.55,6.79a2.758,2.758,0,0,0-.413-1.009,2.609,2.609,0,0,0-.62-.631,2.042,2.042,0,0,0-.734-.335A3.488,3.488,0,0,0,167,4.725a3.339,3.339,0,0,0-1.183.192c-.345.135-.519.234-.519.311V18.554a2.025,2.025,0,0,0,.566,1.666,2.21,2.21,0,0,0,1.432.449h.462a2.131,2.131,0,0,0,1.4-.459,2.07,2.07,0,0,0,.55-1.656V14.578a3.384,3.384,0,0,0,1.274,1.427,3.676,3.676,0,0,0,2.032.55,5.037,5.037,0,0,0,2.141-.449,4.952,4.952,0,0,0,1.65-1.24,5.545,5.545,0,0,0,1.059-1.894,7.629,7.629,0,0,0,.366-2.413,7.824,7.824,0,0,0-.366-2.478,5.239,5.239,0,0,0-1.059-1.874m-4.791,6.812a2.461,2.461,0,1,1,2.46-2.46,2.46,2.46,0,0,1-2.46,2.46" transform="translate(673.67 418.34)"/>
    <path id="Path_405" data-name="Path 405" d="M187.184,6.207a4.544,4.544,0,0,0-1.653-1.183,5.324,5.324,0,0,0-2.136-.415,3.874,3.874,0,0,0-2.162.6,3.344,3.344,0,0,0-1.311,1.583,2.713,2.713,0,0,0-.41-1.009,2.571,2.571,0,0,0-.623-.631,2.051,2.051,0,0,0-.732-.335,3.523,3.523,0,0,0-.781-.091,3.339,3.339,0,0,0-1.183.192c-.348.135-.519.234-.519.311V18.554a2.041,2.041,0,0,0,.561,1.666,2.225,2.225,0,0,0,1.438.449h.459a2.114,2.114,0,0,0,1.4-.459,2.062,2.062,0,0,0,.553-1.656V14.578a3.408,3.408,0,0,0,1.277,1.427,3.669,3.669,0,0,0,2.032.55,5.005,5.005,0,0,0,2.136-.449,4.885,4.885,0,0,0,1.653-1.24,5.506,5.506,0,0,0,1.061-1.894,7.628,7.628,0,0,0,.366-2.413,7.823,7.823,0,0,0-.366-2.478,5.2,5.2,0,0,0-1.061-1.874M182.4,13.019a2.461,2.461,0,1,1,2.46-2.46,2.46,2.46,0,0,1-2.46,2.46" transform="translate(690.221 418.34)"/>
    <path id="Path_406" data-name="Path 406" d="M192.474,6.207a4.578,4.578,0,0,0-1.65-1.183,5.358,5.358,0,0,0-2.141-.415,3.851,3.851,0,0,0-2.157.6,3.281,3.281,0,0,0-1.308,1.583,2.8,2.8,0,0,0-.418-1.009,2.6,2.6,0,0,0-.618-.631,2.074,2.074,0,0,0-.737-.335,3.488,3.488,0,0,0-.781-.091,3.325,3.325,0,0,0-1.181.192c-.348.135-.522.234-.522.311V18.554a2.033,2.033,0,0,0,.566,1.666,2.22,2.22,0,0,0,1.438.449h.459a2.119,2.119,0,0,0,1.4-.459,2.07,2.07,0,0,0,.55-1.656V14.578a3.419,3.419,0,0,0,1.274,1.427,3.681,3.681,0,0,0,2.032.55,5.037,5.037,0,0,0,2.141-.449,4.925,4.925,0,0,0,1.65-1.24,5.5,5.5,0,0,0,1.059-1.894,7.556,7.556,0,0,0,.366-2.413,7.751,7.751,0,0,0-.366-2.478,5.2,5.2,0,0,0-1.059-1.874m-4.791,6.812a2.461,2.461,0,1,1,2.463-2.46,2.462,2.462,0,0,1-2.463,2.46" transform="translate(698.654 418.34)"/>
    <path id="Path_407" data-name="Path 407" d="M193.691,5.844a1.2,1.2,0,0,1,1.23-1.235,1.178,1.178,0,0,1,1.233,1.225,1.2,1.2,0,0,1-1.235,1.235,1.177,1.177,0,0,1-1.228-1.225M196,5.839a1.06,1.06,0,0,0-1.085-1.1,1.041,1.041,0,0,0-1.077,1.1,1.081,1.081,0,1,0,2.162,0m-1.012.106.439.452c.008.016-.029.073-.088.073a.155.155,0,0,1-.117-.062l-.415-.449h-.163v.433a.07.07,0,0,1-.073.078h-.026c-.044,0-.07-.034-.07-.086v-1.1a.089.089,0,0,1,.091-.1h.384c.317,0,.49.13.49.384,0,.226-.151.369-.452.371m-.036-.122c.21,0,.322-.093.322-.249s-.112-.244-.33-.244h-.3v.493Z" transform="translate(718.958 418.342)"/>
  </g>
</svg>
