<svg xmlns="http://www.w3.org/2000/svg" width="172.616" height="20.169" viewBox="0 0 172.616 20.169">
  <g id="Group_1453" data-name="Group 1453" transform="translate(-933.805 -418.828)">
    <path id="Path_408" data-name="Path 408" d="M209.524,5.2h-2.138V3.06h2.138Zm-2.138,2.138h2.138V18.965h-2.138Z" transform="translate(740.804 415.871)"/>
    <path id="Path_409" data-name="Path 409" d="M232.018,15.013a1.53,1.53,0,0,1-.465.073c-.607,0-.607-.4-.607-1.305V7.8c0-2.722-2.271-3.195-4.365-3.195-2.585,0-5.053,1.009-5.164,3.89h2.151c.091-1.71,1.282-2.2,2.9-2.2,1.215,0,2.349.27,2.349,1.933,0,1.44-1.56,1.305-3.675,1.71-1.98.381-4.178.945-4.178,3.576,0,2.32,1.972,3.262,4.09,3.262a4.7,4.7,0,0,0,3.854-1.8,1.7,1.7,0,0,0,1.861,1.8,2.691,2.691,0,0,0,1.248-.27Zm-3.223-2.559c0,1.056-.794,2.631-3.314,2.631-1.17,0-2.247-.452-2.247-1.71,0-1.417,1.077-1.868,2.338-2.092,1.282-.226,2.484-.247,3.223-.786Z" transform="translate(762.463 418.334)"/>
    <path id="Path_410" data-name="Path 410" d="M209.033,4.874h2.024v1.71h.044a3.924,3.924,0,0,1,3.532-1.98,3.381,3.381,0,0,1,3.42,1.98,3.926,3.926,0,0,1,3.418-1.98c2.317,0,4.092.968,4.092,3.374V16.5h-2.136V8.878c0-1.44-.381-2.587-2.247-2.587a2.647,2.647,0,0,0-2.813,2.971V16.5h-2.138V8.878c0-1.508-.472-2.587-2.182-2.587a2.91,2.91,0,0,0-2.875,2.971V16.5h-2.138Z" transform="translate(743.431 418.334)"/>
    <path id="Path_411" data-name="Path 411" d="M214.723,3.061h-2.761l-7.985,7.85V3.061h-2.133v15.9h2.133V13.343l2.678-2.5,5.8,8.12h2.7l-7.041-9.581Z" transform="translate(731.962 415.873)"/>
    <path id="Path_412" data-name="Path 412" d="M222.119,7.065a3.919,3.919,0,0,0-3.711,1.843h-.047V3.061h-2.136v15.9h2.136V17.412h.047a4.454,4.454,0,0,0,3.758,1.822c3.555,0,5.307-2.766,5.307-6.052s-1.775-6.117-5.354-6.117m-.381,10.482c-2.631,0-3.441-2.115-3.441-4.409,0-2.18.763-4.386,3.327-4.386,2.478,0,3.6,2.115,3.6,4.3,0,2.271-.88,4.5-3.488,4.5" transform="translate(754.904 415.873)"/>
    <rect id="Rectangle_268" data-name="Rectangle 268" width="2.138" height="15.903" transform="translate(995.548 418.934)"/>
    <rect id="Rectangle_269" data-name="Rectangle 269" width="2.138" height="15.903" transform="translate(999.821 418.934)"/>
    <path id="Path_413" data-name="Path 413" d="M230.064,3.02A1.176,1.176,0,1,0,231.239,4.2a1.176,1.176,0,0,0-1.176-1.176m0,2.133a.958.958,0,1,1,.96-.958.959.959,0,0,1-.96.958" transform="translate(775.102 415.808)"/>
    <path id="Path_414" data-name="Path 414" d="M229.168,3.217h.477a.476.476,0,0,1,.35.125.413.413,0,0,1,.109.291v.005a.385.385,0,0,1-.273.387l.311.509h-.252l-.28-.465h-.226v.465h-.218Zm.454.657c.169,0,.262-.091.262-.228v0c0-.148-.093-.226-.26-.226h-.239v.457Z" transform="translate(775.548 416.121)"/>
    <path id="Path_415" data-name="Path 415" d="M231.57,11v7.962h-.994V3.06h.994v7.082h10.316V3.06h.994v15.9h-.994V11Z" transform="translate(777.795 415.872)"/>
    <path id="Path_416" data-name="Path 416" d="M241.586,4.6c3.415,0,5.338,2.782,5.338,6.083s-1.923,6.086-5.338,6.086-5.338-2.782-5.338-6.086S238.171,4.6,241.586,4.6m0,11.421c2.917,0,4.477-2.556,4.477-5.338s-1.56-5.338-4.477-5.338S237.11,7.9,237.11,10.687s1.56,5.338,4.477,5.338" transform="translate(786.842 418.334)"/>
    <path id="Path_417" data-name="Path 417" d="M241.988,12.633a3.555,3.555,0,0,0,3.846,3.392c1.516,0,3.685-.452,3.685-2.465,0-1.967-1.988-2.26-3.981-2.668-2.014-.4-4-.929-4-3.3,0-2.31,2.24-2.987,4.207-2.987,2.465,0,4.3,1.064,4.3,3.711h-.862c-.018-2.1-1.49-2.964-3.436-2.964-1.583,0-3.348.586-3.348,2.24,0,1.853,1.99,2.146,3.869,2.554,2.3.428,4.116.973,4.116,3.415,0,2.512-2.512,3.213-4.547,3.213-2.647,0-4.637-1.425-4.7-4.139Z" transform="translate(794.627 418.334)"/>
    <path id="Path_418" data-name="Path 418" d="M246.6,7.544h.047a4.338,4.338,0,0,1,4.227-2.94c3.573,0,5.224,2.826,5.224,6.106,0,3.529-1.674,6.062-5.224,6.062a4.14,4.14,0,0,1-4.227-2.691H246.6v6.581h-.862V4.874h.862Zm8.639,3.166c0-2.647-1.243-5.359-4.365-5.359-3.1,0-4.253,2.6-4.253,5.359s.973,5.315,4.253,5.315c3.031,0,4.365-2.442,4.365-5.315" transform="translate(801.982 418.334)"/>
    <path id="Path_419" data-name="Path 419" d="M250.752,3.06h.859V5.2h-.859Zm0,4.277h.859V18.963h-.859Z" transform="translate(809.977 415.871)"/>
    <path id="Path_420" data-name="Path 420" d="M257.358,7.682h-2.533V15.8c0,1.876.882,2.058,2.509,2.011v.747c-1.765.114-3.459-.135-3.368-2.759V7.682h-2.151V6.934h2.151V3.314h.859v3.62h2.533Z" transform="translate(811.673 416.276)"/>
    <path id="Path_421" data-name="Path 421" d="M263.631,14.354c0,.677,0,1.4.771,1.4a4.114,4.114,0,0,0,.633-.065v.721a3.846,3.846,0,0,1-.7.091c-1.36,0-1.562-.747-1.562-1.7V14.2h-.044a4.474,4.474,0,0,1-4.321,2.58c-2.2,0-3.89-.838-3.89-3.28,0-2.714,2.351-3.28,4.274-3.439,3.846-.272,4-.519,4-2.421,0-.519-.589-2.284-3.234-2.284-2.084,0-3.462,1.085-3.576,3.1h-.859c.114-2.556,1.7-3.846,4.435-3.846,2.035,0,4.069.633,4.069,3.031ZM262.772,9.9c-.677.768-2.533.677-4.207.906-2.037.226-3.189.95-3.189,2.691,0,1.4,1.02,2.533,3.054,2.533a4.04,4.04,0,0,0,4.342-3.958Z" transform="translate(815.982 418.334)"/>
    <rect id="Rectangle_270" data-name="Rectangle 270" width="0.859" height="15.9" transform="translate(1082.987 418.934)"/>
    <path id="Path_422" data-name="Path 422" d="M260.959,3.06h.859V5.2h-.859Zm0,4.277h.859V18.963h-.859Z" transform="translate(826.258 415.871)"/>
    <path id="Path_423" data-name="Path 423" d="M267.564,7.682h-2.533V15.8c0,1.876.882,2.058,2.509,2.011v.747c-1.765.114-3.459-.135-3.368-2.759V7.682h-2.151V6.934h2.151V3.314h.859v3.62h2.533Z" transform="translate(827.952 416.276)"/>
    <path id="Path_424" data-name="Path 424" d="M264.393,4.709h1.02l4.318,10.609,3.981-10.609h.973L269.71,17.578a6.446,6.446,0,0,1-1.357,2.4,4.29,4.29,0,0,1-2.717.516v-.742a2.945,2.945,0,0,0,2.421-.75,9.249,9.249,0,0,0,1.2-2.735Z" transform="translate(831.736 418.502)"/>
  </g>
</svg>
