<svg xmlns="http://www.w3.org/2000/svg" width="130.687" height="16.92" viewBox="0 0 130.687 16.92">
  <g id="Group_1451" data-name="Group 1451" transform="translate(-693.49 -418.311)">
    <path id="Path_455" data-name="Path 455" d="M109.24,19.347c1-.184,1.279-.651,1.279-2.631V9.781c0-1.49-.418-1.863-1.279-2.071h6.215c-1.048.231-1.282.672-1.282,2.652V17.3c0,1.469.35,1.863,1.282,2.048Zm3.1-16.526a1.858,1.858,0,0,1,1.884,1.793,1.878,1.878,0,0,1-3.747,0,1.855,1.855,0,0,1,1.863-1.793" transform="translate(584.25 415.49)"/>
    <path id="Path_456" data-name="Path 456" d="M112.172,16.429c1.025-.187,1.282-.654,1.282-2.725V6.747c0-1.4-.42-1.747-1.282-1.957h4.939v9.592c0,1.487.278,1.884.929,2.048Zm8.823,0c.581-.163.932-.561.932-2.048,0-1.7.023-3.423.023-5.144,0-2.33-.792-3.472-2.307-3.472a2.463,2.463,0,0,0-1.487.49A4.047,4.047,0,0,1,121.6,4.65c2.442,0,4,1.375,4,4.866v4.866c0,1.487.371,1.884,1.282,2.048Z" transform="translate(588.927 418.408)"/>
    <path id="Path_457" data-name="Path 457" d="M119.332,8.921c0-1.4-.394-1.747-1.279-1.954h1.279l3.654-3.68v3.68H126.9v.592h-3.911v8.089c0,1.513.257,2.538.932,3.073-3.026-.023-4.586-2.188-4.586-5.468Z" transform="translate(598.308 416.233)"/>
    <path id="Path_458" data-name="Path 458" d="M126.628,16.343c1-.187,1.279-.677,1.279-2.748V6.752c0-1.513-.42-1.837-1.279-2.048h4.933v9.568c0,1.49.371,1.884,1.279,2.071ZM135.379,4.8a1.736,1.736,0,0,1,1.77,1.676,1.772,1.772,0,0,1-3.54,0,1.736,1.736,0,0,1,1.77-1.676" transform="translate(611.985 418.494)"/>
    <path id="Path_459" data-name="Path 459" d="M132.963,6.7c-.488-1.49-1.048-1.791-2-2h6.145c-.654.187-.934.511-.467,1.77.093.184,1.817,5.1,1.91,5.307l-1.884,4.887Zm6.4-2h4.8c-.581.163-.908.511-.348,1.887l1.887,5.19-1.887,4.863Zm10.687,0a3.37,3.37,0,0,0-2.7,2.372c.535-1.487.278-2.138-.514-2.372Z" transform="translate(618.898 418.494)"/>
    <path id="Path_460" data-name="Path 460" d="M144.931,6.5A2.417,2.417,0,0,0,142.974,4.7h6.285c-.675.187-.906.535-.418,1.747l.278.792,1.863,4.933-1.907,4.562ZM155.568,4.7c-1.4.327-2.071.862-2.886,2.725.721-1.863.441-2.4-.628-2.725Z" transform="translate(638.06 418.494)"/>
    <path id="Path_461" data-name="Path 461" d="M152.9,16.429c1.025-.187,1.282-.654,1.282-2.725V6.747c0-1.4-.42-1.747-1.282-1.957h4.939v9.592c0,1.487.278,1.884.929,2.048Zm8.823,0c.581-.163.932-.561.932-2.048,0-1.7.023-3.423.023-5.144,0-2.33-.792-3.472-2.307-3.472a2.463,2.463,0,0,0-1.487.49,4.042,4.042,0,0,1,3.444-1.606c2.445,0,4,1.375,4,4.866v4.866c0,1.487.371,1.884,1.282,2.048Z" transform="translate(653.894 418.408)"/>
    <path id="Path_462" data-name="Path 462" d="M141.877,12.365c0,2.4,1.048,4.074,2.629,4.144-3.49-.047-6.355-2.118-6.355-5.914,0-3.815,2.865-5.888,6.379-5.935-1.56.093-2.652,1.793-2.652,4.168Z" transform="translate(630.364 418.424)"/>
    <path id="Path_463" data-name="Path 463" d="M143.267,8.825c0-2.351-1.069-4.074-2.652-4.165,3.514.067,6.376,2.138,6.376,5.912,0,3.817-2.886,5.909-6.4,5.935,1.609-.07,2.678-1.723,2.678-4.144Z" transform="translate(634.255 418.424)"/>
    <path id="Path_464" data-name="Path 464" d="M151.457,12.388c0,2.419,1.072,4.118,3.467,4.118a6.254,6.254,0,0,1-.7.026c-3.864,0-6.47-2.375-6.47-5.938,0-3.446,2.468-5.865,6.215-5.935-1.861.091-2.515,2.024-2.515,4.142Z" transform="translate(645.688 418.424)"/>
    <path id="Path_465" data-name="Path 465" d="M150.712,10.805c1.723-.628,2.048-1.139,2-2.421-.093-1.977-.862-3.607-2.561-3.724,3.794.117,6.449,2.445,6.171,6.145Z" transform="translate(649.508 418.424)"/>
    <path id="Path_466" data-name="Path 466" d="M125.1,12.388c0,2.419,1.072,4.118,3.467,4.118a6.232,6.232,0,0,1-.7.026c-3.864,0-6.472-2.375-6.472-5.938,0-3.446,2.468-5.865,6.215-5.935-1.861.091-2.515,2.024-2.515,4.142Z" transform="translate(603.647 418.424)"/>
    <path id="Path_467" data-name="Path 467" d="M124.357,10.805c1.723-.628,2.048-1.139,2-2.421-.093-1.977-.862-3.607-2.561-3.724,3.8.117,6.449,2.445,6.171,6.145Z" transform="translate(607.468 418.424)"/>
    <path id="Path_468" data-name="Path 468" d="M159.63,4.927c-.135,0-.252-.005-.407-.005v.8c0,.073,0,.213.005.26h-.254c.008-.086.016-.317.016-.433V5.2c0-.07,0-.176-.008-.275-.153,0-.278,0-.41.005.005-.06.005-.148.005-.215.169.005.327.008.527.008s.371,0,.54-.008a1.414,1.414,0,0,0-.013.215" transform="translate(662.938 418.506)"/>
    <path id="Path_469" data-name="Path 469" d="M160.246,6.023c0-.049-.023-.2-.034-.275l-.067-.49c-.086.184-.314.7-.34.763l-.088.018c-.029-.065-.254-.568-.343-.773l-.067.485c-.013.07-.034.309-.029.257h-.236c.021-.093.06-.319.078-.433l.055-.4c.018-.114.047-.358.052-.454l.091-.016.125.267.324.69.319-.685.119-.27h.086c.016.106.047.353.062.467l.057.4c.018.119.039.262.078.436Z" transform="translate(663.689 418.486)"/>
  </g>
</svg>
