<svg xmlns="http://www.w3.org/2000/svg" width="40.193" height="24.006" viewBox="0 0 40.193 24.006">
  <g id="Group_1450" data-name="Group 1450" transform="translate(-635.835 -410.99)">
    <path id="Path_449" data-name="Path 449" d="M104.381,8.272a2.014,2.014,0,0,0-2.826,0,1.986,1.986,0,0,0,0,2.808,2.021,2.021,0,0,0,2.826,0,1.986,1.986,0,0,0,0-2.808" transform="translate(571.064 423.262)"/>
    <path id="Path_450" data-name="Path 450" d="M103.939,6.626a1.729,1.729,0,0,0-.625,1.324,1.709,1.709,0,0,0,.612,1.321,2.157,2.157,0,0,0,1.471.542,2.124,2.124,0,0,0,1.445-.542,1.709,1.709,0,0,0,.612-1.321,2.182,2.182,0,0,0-.4-1.253,3.757,3.757,0,0,0-1.08-1.025,5.688,5.688,0,0,0-1.588-.685,7.49,7.49,0,0,0-1.954-.249,6.387,6.387,0,0,0-2.489.462,5.659,5.659,0,0,0-1.874,1.238,5.216,5.216,0,0,0-1.173,1.843,6.534,6.534,0,0,0,0,4.528,5.305,5.305,0,0,0,1.173,1.853,5.571,5.571,0,0,0,1.874,1.251,6.435,6.435,0,0,0,2.489.462,7.49,7.49,0,0,0,1.954-.249,5.481,5.481,0,0,0,1.588-.7,3.909,3.909,0,0,0,1.08-1.028,2.155,2.155,0,0,0,.4-1.264,1.714,1.714,0,0,0-.612-1.308,2.087,2.087,0,0,0-1.445-.555,2.119,2.119,0,0,0-1.471.555,1.714,1.714,0,0,0-.612,1.308,1.756,1.756,0,0,0,.625,1.347q.21.187.428.413a.55.55,0,0,1,.145.553.814.814,0,0,1-.444.509,2.3,2.3,0,0,1-.885.249,1.1,1.1,0,0,0-.158.01.617.617,0,0,1-.13.01,2.428,2.428,0,0,1-1.028-.2,1.618,1.618,0,0,1-.716-.685,3.791,3.791,0,0,1-.428-1.274,11.351,11.351,0,0,1-.145-1.99V9.032a11.351,11.351,0,0,1,.145-1.99,3.771,3.771,0,0,1,.428-1.274,1.618,1.618,0,0,1,.716-.685,2.427,2.427,0,0,1,1.028-.2,1.392,1.392,0,0,1,.288.023,2.3,2.3,0,0,1,.885.249.823.823,0,0,1,.444.506.553.553,0,0,1-.145.555q-.218.226-.428.413" transform="translate(563.909 418.547)"/>
    <path id="Path_451" data-name="Path 451" d="M107.561,4.788c-.01-.039-.031-.044-.052-.044a.051.051,0,0,0-.054.052,2.486,2.486,0,1,1-2.473-2.756,2.941,2.941,0,0,1,2.785,3.223c.005,2.59-2.476,4.915-5.842,6.21a.026.026,0,0,0-.008.044,7.14,7.14,0,0,1,2.04,3.415,7.25,7.25,0,0,1-2.823,7.4,9.984,9.984,0,0,1-11.024.018,7.505,7.505,0,0,1-3.086-5.808c-.005-4,2.369-6.285,4.518-7a.065.065,0,0,0,.008-.122c-1.168-.493-3.4-1.923-3.4-4.373C88.139,2.149,91.359.005,94.85,0c5.084-.008,6.727,2.881,6.727,4.531a2.486,2.486,0,1,1-4.972.008,2.884,2.884,0,0,1,1.57-2.45c.67-.478.519-1.412-.586-1.409A4.653,4.653,0,0,0,97.5,9.986a.112.112,0,0,1,.112.112.111.111,0,0,1-.112.112,6.08,6.08,0,1,0,4.173,1.4.064.064,0,0,0-.06-.01C99.1,12.54,98.242,12.3,96.8,13a3.341,3.341,0,0,0-1.637,3.283.052.052,0,0,0,.052.052.054.054,0,0,0,.055-.052,2.8,2.8,0,1,1,2.805,2.8,3.1,3.1,0,0,1-3.169-3.33c-.005-4.266,4.292-6.01,5.9-6.586,1.526-.545,3.392-.641,5-1.414a3.042,3.042,0,0,0,1.754-2.964" transform="translate(548.812 410.99)"/>
    <path id="Path_452" data-name="Path 452" d="M98.632,2.879A9.616,9.616,0,0,1,93.9,7.7a.035.035,0,0,0-.013.023v.369a.026.026,0,0,0,.026.026h.7v7.8h.008a4.174,4.174,0,0,0,.272,1.477A2.994,2.994,0,0,0,95.64,18.5a2.842,2.842,0,0,0,1.111.623,4.524,4.524,0,0,0,1.355.2,4.476,4.476,0,0,0,1.8-.376,8.785,8.785,0,0,0,1.466-.8.024.024,0,0,0,0-.039c-.029-.034-.06-.065-.088-.1a.031.031,0,0,0-.031,0,4.764,4.764,0,0,1-.672.314,1.121,1.121,0,0,1-.776.057,1,1,0,0,1-.566-.581,3.4,3.4,0,0,1-.221-1.386l0-8.3h1.856a.026.026,0,0,0,.023-.026V7.755a.026.026,0,0,0-.023-.026H99.021V2.889A.025.025,0,0,0,99,2.863h-.34a.023.023,0,0,0-.023.016" transform="translate(559.754 415.557)"/>
  </g>
</svg>
