<svg xmlns="http://www.w3.org/2000/svg" width="125.77" height="13.492" viewBox="0 0 125.77 13.492">
  <g id="Group_1449" data-name="Group 1449" transform="translate(-496.141 -421.877)">
    <path id="Path_440" data-name="Path 440" d="M53.8,12.409c0,3.2,1.116,4.746,4.643,4.746h7.505c3.527,0,4.643-1.544,4.643-4.746V8.941c0-3.2-1.116-4.746-4.643-4.746H58.439C54.912,4.2,53.8,5.736,53.8,8.941Zm15.026.649c0,2.206-1.368,2.694-3.057,2.694H58.62c-1.692,0-3.06-.488-3.06-2.694V8.293c0-2.206,1.368-2.7,3.06-2.7h7.144c1.689,0,3.057.49,3.057,2.7Z" transform="translate(495.811 417.682)"/>
    <path id="Path_441" data-name="Path 441" d="M33.194,4.2h2.629L47.752,15.58V4.2h1.765v12.96H46.891L34.956,5.771V17.155H33.194Z" transform="translate(462.947 417.683)"/>
    <path id="Path_442" data-name="Path 442" d="M40.212,17.153h2l1.619-2.735H54.27l1.619,2.735h2L50.149,4.2h-2.2Zm13.212-4.17H44.678l4.373-7.355Z" transform="translate(474.143 417.684)"/>
    <path id="Path_443" data-name="Path 443" d="M52.39,5.628H45.8V4.2H60.741V5.628H54.152V17.155H52.39Z" transform="translate(483.062 417.682)"/>
    <rect id="Rectangle_275" data-name="Rectangle 275" width="1.762" height="12.96" transform="translate(545.49 421.877)"/>
    <path id="Path_444" data-name="Path 444" d="M61.119,4.2h2.629L75.68,15.58V4.2h1.765v12.96H74.816L62.883,5.771V17.155H61.119Z" transform="translate(507.491 417.683)"/>
    <path id="Path_445" data-name="Path 445" d="M68.136,17.153h2l1.619-2.735H82.194l1.619,2.735h2L78.073,4.2h-2.2Zm13.214-4.17H72.6l4.375-7.355Z" transform="translate(518.685 417.684)"/>
    <path id="Path_446" data-name="Path 446" d="M75.717,4.2h1.767V15.723H87.595v1.432H75.717Z" transform="translate(530.777 417.683)"/>
    <path id="Path_447" data-name="Path 447" d="M77.484,8.637H87.6V10.07H75.717" transform="translate(530.776 424.768)"/>
    <path id="Path_448" data-name="Path 448" d="M81.684,9.59V9.149h.3c.153,0,.314.031.314.21,0,.218-.163.231-.35.231Zm0,.187h.254l.381.625h.244l-.413-.633a.377.377,0,0,0,.376-.4c0-.283-.169-.413-.509-.413h-.553V10.4h.218Zm.267,1.15A1.247,1.247,0,1,0,80.68,9.679a1.246,1.246,0,0,0,1.272,1.248m-1.02-1.248a1.016,1.016,0,1,1,1.02,1.043,1.013,1.013,0,0,1-1.02-1.043" transform="translate(538.693 424.441)"/>
  </g>
</svg>
