<svg xmlns="http://www.w3.org/2000/svg" width="66.9" height="16.287" viewBox="0 0 66.9 16.287">
  <g id="Group_1454" data-name="Group 1454" transform="translate(-1123.881 -421.713)">
    <path id="Path_425" data-name="Path 425" d="M278.333,16.882a8.919,8.919,0,0,0,2.587-.335,4.254,4.254,0,0,0,1.822-1.072,4.53,4.53,0,0,0,1.082-1.926,10.33,10.33,0,0,0,.353-2.886,10.13,10.13,0,0,0-.353-2.868,4.528,4.528,0,0,0-1.082-1.9A4.228,4.228,0,0,0,280.92,4.82a8.913,8.913,0,0,0-2.587-.337h-1.305v12.4Zm0-12.713a12.539,12.539,0,0,1,3.016.35,7.121,7.121,0,0,1,2.476,1.129A5.441,5.441,0,0,1,285.5,7.657a6.72,6.72,0,0,1,.615,3.008A6.806,6.806,0,0,1,285.5,13.7a5.393,5.393,0,0,1-1.674,2.019,7.024,7.024,0,0,1-2.476,1.126,12.282,12.282,0,0,1-3.016.353h-3.239V4.169Z" transform="translate(848.805 417.641)"/>
    <path id="Path_426" data-name="Path 426" d="M291.081,14.58a3.313,3.313,0,0,0-.781-1.342,7.5,7.5,0,0,0-1.557-1.227,26.291,26.291,0,0,0-2.548-1.342c-.4-.182-.8-.379-1.225-.584a9.639,9.639,0,0,1-1.16-.667,3.72,3.72,0,0,1-.869-.789,1.545,1.545,0,0,1-.345-.989,3.219,3.219,0,0,1,.309-1.479,2.759,2.759,0,0,1,.8-.973,3.186,3.186,0,0,1,1.134-.527,5.332,5.332,0,0,1,1.287-.161,6.952,6.952,0,0,1,1.951.285,4.5,4.5,0,0,1,1.741.952l.3-.254a5.038,5.038,0,0,0-1.845-1.02,7.209,7.209,0,0,0-2.144-.332,6.416,6.416,0,0,0-1.721.241,5.4,5.4,0,0,0-1.56.7,3.948,3.948,0,0,0-1.126,1.137,2.819,2.819,0,0,0-.433,1.549,3.9,3.9,0,0,0,.345,1.721,4.007,4.007,0,0,0,.963,1.261,8.036,8.036,0,0,0,1.479,1.02q.86.471,1.892,1.02a15.654,15.654,0,0,1,2.8,1.757,2.258,2.258,0,0,1,.942,1.731,4.325,4.325,0,0,1-.309,1.708,3.17,3.17,0,0,1-2.042,1.858,4.967,4.967,0,0,1-1.505.221,8.571,8.571,0,0,1-1.251-.1,7.718,7.718,0,0,1-1.339-.335A6.557,6.557,0,0,1,282,19.031a3.746,3.746,0,0,1-1.01-.859l-.345.205a4.877,4.877,0,0,0,1.043.9,6.437,6.437,0,0,0,1.308.641,8.543,8.543,0,0,0,.911.272l.062.013c.153.034.306.067.462.093.14.026.278.044.415.062l.021,0c.234.029.465.047.688.054.1.005.2.008.3.008.138,0,.27-.005.4-.016.057,0,.114-.005.166-.01.125-.008.247-.021.366-.036.068-.008.132-.018.2-.031.086-.013.171-.029.26-.044.052-.01.106-.021.158-.034.143-.031.285-.065.423-.1.218-.065.426-.138.631-.221l.029-.01c.119-.049.234-.1.345-.153.039-.018.078-.039.114-.06.086-.042.174-.086.257-.132a4.3,4.3,0,0,0,.366-.226,4.194,4.194,0,0,0,1.251-1.3,3.337,3.337,0,0,0,.47-1.778,6.193,6.193,0,0,0-.2-1.687" transform="translate(857.656 417.581)"/>
    <path id="Path_427" data-name="Path 427" d="M326.787,10.272h-41.8c-.122.117-.244.223-.371.33h42.171Z" transform="translate(863.994 427.375)"/>
    <path id="Path_428" data-name="Path 428" d="M275.087,10.272v.33H289.23c-.137-.106-.272-.215-.4-.33Z" transform="translate(848.794 427.375)"/>
    <path id="Path_429" data-name="Path 429" d="M285.545,4.169h8.784v.314H290.9V17.2h-1.933V4.483h-3.426Z" transform="translate(865.476 417.641)"/>
    <path id="Path_430" data-name="Path 430" d="M291.494,4.169l3.462,5.881,3.425-5.881h.374c-.1.161-.218.358-.355.594s-.286.493-.446.771-.332.576-.511.888-.363.618-.548.929c-.324.545-.638,1.074-.942,1.583s-.548.924-.737,1.246V17.2h-1.933V10.5c-.174-.3-.384-.651-.623-1.054s-.5-.825-.755-1.266-.519-.88-.771-1.321-.5-.843-.719-1.209-.413-.683-.568-.95-.257-.444-.306-.529Z" transform="translate(871.848 417.641)"/>
    <path id="Path_431" data-name="Path 431" d="M295.744,16.882h6.291V17.2h-8.227V4.169h1.936Z" transform="translate(878.656 417.641)"/>
    <path id="Path_432" data-name="Path 432" d="M297.7,4.169V17.2h8.227v-.314h-6.291v-6.7h3.592V9.865h-3.592V4.483h5.489V4.169Z" transform="translate(884.857 417.641)"/>
    <path id="Path_433" data-name="Path 433" d="M281.05,4.167,280.8,7.735H280l-.236-3.568Z" transform="translate(856.249 417.637)"/>
  </g>
</svg>
