<svg xmlns="http://www.w3.org/2000/svg" width="71.973" height="16.285" viewBox="0 0 71.973 16.285">
  <g id="Group_1448" data-name="Group 1448" transform="translate(-410 -418.801)">
    <path id="Path_434" data-name="Path 434" d="M19.811,4.591a4.024,4.024,0,0,0-3.579,2.167,3.6,3.6,0,0,0-3.55-2.167A3.763,3.763,0,0,0,9.317,6.576h0V4.84H7.329V16.523h2.11V9.034a2.643,2.643,0,0,1,5.286,0v7.489h2.112V9.034a2.642,2.642,0,1,1,5.284,0v7.489h2.115V8.658c0-2.369-1.811-4.067-4.425-4.067" transform="translate(421.69 418.313)"/>
    <rect id="Rectangle_271" data-name="Rectangle 271" width="2.115" height="15.913" transform="translate(472.337 418.926)"/>
    <rect id="Rectangle_272" data-name="Rectangle 272" width="2.115" height="15.913" transform="translate(476.564 418.926)"/>
    <path id="Path_435" data-name="Path 435" d="M20.623,7.036A4.538,4.538,0,0,0,16.772,8.9V3.058H14.657V18.969h1.99V17.16a4.62,4.62,0,0,0,3.976,2.058c3.47,0,5.1-2.486,5.1-6.158,0-3.537-1.627-6.023-5.1-6.023m-.449,10.4c-2.055,0-3.449-1.625-3.449-4.261s1.4-4.336,3.454-4.336,3.415,1.609,3.415,4.246-1.365,4.352-3.42,4.352" transform="translate(433.38 415.868)"/>
    <path id="Path_436" data-name="Path 436" d="M13.736,3.058H10.713l-8.6,8.413V3.058H0V18.971H2.112V14.43l3.379-3.306,5.639,7.848h2.605L7.02,9.629Z" transform="translate(410 415.868)"/>
    <path id="Path_437" data-name="Path 437" d="M29.989,14.8c-.446,0-.625-.223-.625-.581V7.986c0-2.011-1.36-3.394-4.669-3.394-3.394,0-4.669,1.482-4.848,3.729h2.118c0-1.368.976-1.944,2.73-1.944,1.811,0,2.556.576,2.556,1.656,0,.939-.68,1.4-1.8,1.531l-1.7.179c-3.218.311-4.4,1.718-4.4,3.573,0,2.214,1.868,3.454,4.352,3.454a4.076,4.076,0,0,0,3.664-1.863,1.894,1.894,0,0,0,1.99,1.741,3.2,3.2,0,0,0,1.056-.122V14.8ZM27.252,11.91a3.09,3.09,0,0,1-3.384,3.083c-1.453,0-2.4-.693-2.4-1.741,0-1.03.807-1.676,2.663-1.9l1.609-.179a3.02,3.02,0,0,0,1.508-.467Z" transform="translate(440.868 418.314)"/>
    <rect id="Rectangle_273" data-name="Rectangle 273" width="2.115" height="2.112" transform="translate(424.792 418.926)"/>
    <rect id="Rectangle_274" data-name="Rectangle 274" width="2.115" height="11.686" transform="translate(424.792 423.153)"/>
    <path id="Path_438" data-name="Path 438" d="M28,3.01a1.182,1.182,0,1,0,1.181,1.183A1.182,1.182,0,0,0,28,3.01m0,2.115a.932.932,0,1,1,.932-.932A.933.933,0,0,1,28,5.125" transform="translate(452.787 415.791)"/>
    <path id="Path_439" data-name="Path 439" d="M27.535,3.97h-.163v.4h-.265V3.251h.516c.254,0,.413.135.413.35a.325.325,0,0,1-.236.327l.278.439h-.3Zm-.163-.205h.236a.151.151,0,1,0,0-.3h-.236Z" transform="translate(453.238 416.176)"/>
  </g>
</svg>
