<svg xmlns="http://www.w3.org/2000/svg" width="221.783" height="12.786" viewBox="0 0 221.783 12.786">
  <g id="Group_1456" data-name="Group 1456" transform="translate(-1208.217 -421.835)">
    <path id="Path_470" data-name="Path 470" d="M522.73,16.075l-1.24.01V5.059h1.632c2.52,0,4.765,2.157,4.765,5.621a5.244,5.244,0,0,1-5.156,5.4m.407-11.629h-4.37v.309c1.007.031,1.246.335,1.246,1.614v8.387c0,1.277-.223,1.583-1.246,1.627V16.7h4.464a5.911,5.911,0,0,0,6.137-6.073,5.864,5.864,0,0,0-6.231-6.179M439.326,16.075l-1.238.01V5.059h1.632c2.52,0,4.765,2.157,4.765,5.621a5.244,5.244,0,0,1-5.159,5.4m.41-11.629h-4.37v.309c1,.031,1.246.335,1.246,1.614v8.387c0,1.277-.226,1.583-1.246,1.627V16.7h4.461a5.911,5.911,0,0,0,6.137-6.073,5.862,5.862,0,0,0-6.228-6.179M387.413,16.075l-1.238.01V5.059h1.632c2.522,0,4.767,2.157,4.767,5.621a5.245,5.245,0,0,1-5.162,5.4m.413-11.629h-4.37v.309c1.007.031,1.246.335,1.246,1.614v8.387c0,1.277-.223,1.583-1.246,1.627V16.7h4.464a5.911,5.911,0,0,0,6.138-6.073,5.864,5.864,0,0,0-6.231-6.179m114.11,5.634h-.945V5.056s1.2,0,1.632.062a2.322,2.322,0,0,1,2.136,2.564c0,1.529-1.134,2.4-2.823,2.4m4.689,5.349c-.768-1.386-1.059-4.521-2.906-4.938a3.26,3.26,0,0,0,2.489-2.945,3.071,3.071,0,0,0-3.192-3.073H498.3v.309c1.028.029,1.282.337,1.282,1.63v8.372c0,1.266-.195,1.6-1.282,1.63v.311h3.952v-.311c-1.054-.029-1.264-.35-1.264-1.63V10.706H502.4c2.52,0,1.941,5.421,3.213,6.018a3.444,3.444,0,0,0,2.4,0v-.309c-.612.036-.9-.195-1.383-.986m-85.576-3.846h-.337M367.426,4.76c.945.044,1.2.356,1.2,1.609v8.387c0,1.207-.223,1.586-1.2,1.63V16.7h3.82v-.314c-.888-.036-1.191-.285-1.191-1.627V6.369c0-1.253.249-1.578,1.191-1.617V4.446h-3.82Zm98.946-.314v.306c.88-.016,1.256.306,1.256.88a2.855,2.855,0,0,1-.143.807c-.527,1.757-2.112,7.028-2.112,7.028l-2.045-7.331a2.355,2.355,0,0,1-.093-.558c0-.55.306-.771,1-.817V4.446h-3.716v.306a1.315,1.315,0,0,1,1.331,1.1l.348,1.212-1.933,6.454s-1.562-5.551-2.066-7.466a2.961,2.961,0,0,1-.106-.594c0-.519.324-.7.968-.7V4.446H455.27v.226a1.729,1.729,0,0,1,1.552,1.464l3.109,10.829,2.613-8.774,2.52,8.774,3-10.4c.511-1.765.911-1.791,1.645-1.9V4.446Zm-43.144,9.392c-.576,1.583-1.329,2.247-2.738,2.247h-1.666c-.737,0-.862-.163-.862-1.025V10.706h1.381c.849,0,1.253.106,1.368.875h.337v-2.7h-.335c-.109.9-.563,1.2-1.695,1.2h-1.056V5.056h1.874c1.311,0,1.884.247,2.112,1.736h.343l-.156-2.346h-6.88v.306c1.082.031,1.251.431,1.251,1.617v8.387c0,1.292-.241,1.6-1.251,1.63V16.7H422.7l.846-2.766ZM353.212,4.446v.309c.9-.018,1.186.231,1.186.7a2.1,2.1,0,0,1-.088.54c-.548,2.014-2.53,7.954-2.53,7.954L349.317,6.26a2.54,2.54,0,0,1-.179-.807c0-.5.286-.7,1.041-.7V4.446h-3.664v.309c.862,0,1.1.052,1.617,1.684l3.379,10.526,3.355-10.526c.394-1.344.792-1.684,1.671-1.684V4.446ZM486.494,14.7,483.116,4.179,479.76,14.7c-.394,1.344-.791,1.684-1.671,1.684V16.7h3.322v-.309c-.9.018-1.183-.234-1.183-.7a2.1,2.1,0,0,1,.088-.54c.548-2.016,2.525-7.964,2.525-7.964l2.468,7.7a2.539,2.539,0,0,1,.179.807c0,.5-.285.7-1.041.7V16.7h3.664v-.309c-.862,0-1.1-.052-1.617-1.684m-150.438,0L332.68,4.179,329.324,14.7c-.4,1.344-.794,1.684-1.674,1.684V16.7h3.324v-.309c-.9.018-1.186-.234-1.186-.7a2.1,2.1,0,0,1,.088-.54c.548-2.014,2.533-7.951,2.533-7.951l2.46,7.684a2.54,2.54,0,0,1,.179.807c0,.5-.285.7-1.041.7V16.7h3.664v-.309c-.862,0-1.1-.052-1.617-1.684m-24.508,1.37-1.24.01V5.059h1.632c2.52,0,4.765,2.157,4.765,5.621a5.244,5.244,0,0,1-5.156,5.4m.407-11.629h-4.37v.309c1,.031,1.246.335,1.246,1.614v8.387c0,1.277-.226,1.583-1.246,1.627V16.7h4.461a5.911,5.911,0,0,0,6.138-6.073,5.864,5.864,0,0,0-6.228-6.179" transform="translate(900.632 417.656)"/>
  </g>
</svg>
