<svg id="KII_Logo" data-name="KII Logo" xmlns="http://www.w3.org/2000/svg" xmlns:xlink="http://www.w3.org/1999/xlink" width="264.927" height="40" viewBox="0 0 264.927 40">
  <defs>
    <clipPath id="clip-path">
      <rect id="Rectangle_178" data-name="Rectangle 178" width="264.927" height="40"/>
    </clipPath>
  </defs>
  <g id="Group_138" data-name="Group 138" clip-path="url(#clip-path)">
    <path id="Path_106" data-name="Path 106" d="M11.433,11.726H28.4V10.462H39.716c-.029-.2-.062-.4-.1-.605H.218c-.035.2-.069.4-.1.605H11.433Z" transform="translate(0.082 6.708)"/>
    <path id="Path_107" data-name="Path 107" d="M11.15,9.859H28.121V8.6H38.732c-.064-.2-.134-.405-.205-.605H.744c-.071.2-.143.4-.207.605H11.15Z" transform="translate(0.365 5.44)"/>
    <path id="Path_108" data-name="Path 108" d="M39.993,11.72H.008c0,.1-.008.2-.008.3s.007.2.008.3H11.515v1.262H28.486V12.327H39.993c0-.1.008-.2.008-.3s-.007-.2-.008-.3" transform="translate(0 7.976)"/>
    <path id="Path_109" data-name="Path 109" d="M.218,14.19h39.4c.035-.2.069-.4.1-.607H.121c.029.205.062.405.1.607" transform="translate(0.082 9.244)"/>
    <path id="Path_110" data-name="Path 110" d="M19.115,0A19.994,19.994,0,0,0,1.3,10.909H36.927A19.994,19.994,0,0,0,19.115,0" transform="translate(0.886 -0.001)"/>
    <path id="Path_111" data-name="Path 111" d="M19.115,28.219a19.993,19.993,0,0,0,17.813-10.91H1.3a19.993,19.993,0,0,0,17.813,10.91" transform="translate(0.886 11.78)"/>
    <path id="Path_112" data-name="Path 112" d="M28.12,15.071H11.149v.63H.538c.064.205.134.407.205.607H11.149v.632H28.12v-.632H38.526c.071-.2.141-.4.205-.607H28.12Z" transform="translate(0.366 10.257)"/>
    <path id="Path_113" data-name="Path 113" d="M58.956,9.289a4.6,4.6,0,0,0-4.091,2.479A4.117,4.117,0,0,0,50.8,9.289a4.291,4.291,0,0,0-3.847,2.272h0V9.573H44.678V22.941h2.417V14.373a3.022,3.022,0,1,1,6.043,0v8.568h2.418V14.373a3.021,3.021,0,1,1,6.042,0v8.568h2.418v-9c0-2.711-2.069-4.654-5.06-4.654" transform="translate(30.408 6.321)"/>
    <rect id="Rectangle_170" data-name="Rectangle 170" width="2.418" height="18.203" transform="translate(124.642 11.058)"/>
    <rect id="Rectangle_171" data-name="Rectangle 171" width="2.418" height="18.203" transform="translate(129.477 11.058)"/>
    <path id="Path_114" data-name="Path 114" d="M63.935,23.032c-2.353,0-3.944-1.86-3.944-4.877s1.6-4.961,3.953-4.961,3.906,1.842,3.906,4.859-1.561,4.98-3.914,4.98m.514-11.9a5.2,5.2,0,0,0-4.408,2.138V6.582H57.624v18.2H59.9V22.711a5.286,5.286,0,0,0,4.549,2.356c3.968,0,5.83-2.844,5.83-7.043,0-4.049-1.862-6.892-5.83-6.892" transform="translate(39.219 4.479)"/>
    <path id="Path_115" data-name="Path 115" d="M47.445,6.581H43.988L34.15,16.206V6.581H31.732v18.2H34.15v-5.2l3.864-3.78,6.454,8.976h2.978L39.761,14.1Z" transform="translate(21.597 4.478)"/>
    <path id="Path_116" data-name="Path 116" d="M74.953,17.661c0,2.481-2,3.528-3.872,3.528-1.662,0-2.738-.792-2.738-1.993,0-1.176.923-1.918,3.045-2.173l1.84-.205a3.457,3.457,0,0,0,1.724-.536Zm3.133,3.311c-.511,0-.716-.255-.716-.666V13.175c0-2.3-1.556-3.887-5.339-3.887-3.884,0-5.343,1.7-5.546,4.265h2.422c0-1.563,1.116-2.22,3.124-2.22,2.071,0,2.923.657,2.923,1.892,0,1.074-.778,1.6-2.057,1.751l-1.943.205c-3.681.356-5.037,1.968-5.037,4.089,0,2.531,2.139,3.953,4.976,3.953a4.664,4.664,0,0,0,4.195-2.133,2.167,2.167,0,0,0,2.276,1.992,3.591,3.591,0,0,0,1.21-.143V20.972Z" transform="translate(44.863 6.321)"/>
    <path id="Path_117" data-name="Path 117" d="M98.124,10.927h-2.56V7.3H94.356v3.627H91.938v1.066h2.418v12.3h1.208v-12.3h2.56Z" transform="translate(62.573 4.968)"/>
    <path id="Path_118" data-name="Path 118" d="M131.546,10.927h-2.56V7.3h-1.208v3.627h-2.417v1.066h2.417v12.3h1.208v-12.3h2.56Z" transform="translate(85.321 4.968)"/>
    <rect id="Rectangle_172" data-name="Rectangle 172" width="1.208" height="18.203" transform="translate(263.718 11.058)"/>
    <rect id="Rectangle_173" data-name="Rectangle 173" width="1.208" height="13.366" transform="translate(219.142 15.895)"/>
    <rect id="Rectangle_174" data-name="Rectangle 174" width="1.208" height="2.418" transform="translate(219.142 11.058)"/>
    <rect id="Rectangle_175" data-name="Rectangle 175" width="1.351" height="18.203" transform="translate(138.162 11.058)"/>
    <path id="Path_119" data-name="Path 119" d="M138.6,22.159c-2.938,0-4.835-2.4-4.835-5.9s1.9-5.9,4.835-5.9,4.835,2.4,4.835,5.9-1.9,5.9-4.835,5.9m0-12.87c-3.627,0-6.043,2.844-6.043,6.968s2.417,6.968,6.043,6.968,6.043-2.844,6.043-6.968-2.417-6.968-6.043-6.968" transform="translate(90.216 6.321)"/>
    <path id="Path_120" data-name="Path 120" d="M102.3,10.356c2.733,0,4.565,2.081,4.8,5.19h-9.61c.24-3.109,2.072-5.19,4.8-5.19m6.038,6.185c0-.094.005-.188.005-.284,0-4.124-2.418-6.968-6.043-6.968s-6.043,2.844-6.043,6.968,2.418,6.968,6.043,6.968a5.744,5.744,0,0,0,5.648-4.265h-1.265a4.539,4.539,0,0,1-4.383,3.2c-2.855,0-4.724-2.276-4.825-5.617Z" transform="translate(65.509 6.321)"/>
    <path id="Path_121" data-name="Path 121" d="M95.625,14.279v8.66H94.416V14.381c0-2.766-1.6-4.025-4.054-4.025-2.2,0-4.408,1.344-4.408,5.164v7.418H84.746V9.573h1.138v2.7a4.535,4.535,0,0,1,4.622-2.985c2.986,0,5.119,1.776,5.119,4.99" transform="translate(57.678 6.321)"/>
    <path id="Path_122" data-name="Path 122" d="M121.517,14.279v8.66h-1.208V14.381c0-2.766-1.6-4.025-4.054-4.025-2.2,0-4.408,1.344-4.408,5.164v7.418h-1.208V9.573h1.138v2.7a4.529,4.529,0,0,1,4.622-2.98c2.986,0,5.119,1.776,5.119,4.99" transform="translate(75.3 6.321)"/>
    <path id="Path_123" data-name="Path 123" d="M152.063,14.279v8.66h-1.21V14.381c0-2.766-1.595-4.025-4.052-4.025-2.2,0-4.408,1.344-4.408,5.164v7.418h-1.208V9.573h1.138v2.7a4.529,4.529,0,0,1,4.622-2.98c2.986,0,5.119,1.776,5.119,4.99" transform="translate(96.09 6.321)"/>
    <path id="Path_124" data-name="Path 124" d="M112.136,9.455a6.549,6.549,0,0,0-1.492-.166,4.527,4.527,0,0,0-4.622,2.98v-2.7h-1.138V22.939h1.208v-7.42c0-3.82,2.212-5.164,4.408-5.164a5.408,5.408,0,0,1,1.635.23Z" transform="translate(71.384 6.321)"/>
    <path id="Path_125" data-name="Path 125" d="M158.384,17.111c0,3.4-2.067,5.119-5,5.119-2.388,0-3.386-1.032-3.386-2.694,0-1.763,1.082-2.662,3.827-2.995l2.279-.281c1.428-.18,1.818-.42,2.286-.931Zm1.208,3.837V13c0-2.071-1.267-3.707-4.835-3.707-3.884,0-5.291,1.677-5.4,4.264h1.212c.131-2.24,1.151-3.19,4.188-3.19,2.854,0,3.627,1.049,3.627,2.634,0,1.38-.116,2.07-2.45,2.351l-2.279.255c-3.541.41-4.941,1.79-4.941,3.912,0,2.2,1.6,3.709,4.618,3.709,2.635,0,4.2-.926,5.122-2.775v.5c0,1.422.711,2.136,1.494,2.136a3.865,3.865,0,0,0,.852-.143v-.854c-.852,0-1.208,0-1.208-1.139" transform="translate(101.215 6.321)"/>
    <path id="Path_126" data-name="Path 126" d="M127.838,17.111c0,3.4-2.067,5.119-5,5.119-2.388,0-3.385-1.032-3.385-2.694,0-1.763,1.081-2.662,3.825-2.995l2.279-.281c1.429-.18,1.818-.42,2.286-.931Zm1.208,3.837V13c0-2.071-1.267-3.707-4.835-3.707-3.884,0-5.291,1.677-5.4,4.264h1.212c.131-2.24,1.151-3.19,4.188-3.19,2.854,0,3.627,1.049,3.627,2.634,0,1.38-.116,2.07-2.45,2.351l-2.279.255c-3.541.41-4.941,1.79-4.941,3.912,0,2.2,1.6,3.709,4.618,3.709,2.635,0,4.2-.926,5.122-2.775v.5c0,1.422.711,2.136,1.494,2.136a3.865,3.865,0,0,0,.852-.143v-.854c-.852,0-1.208,0-1.208-1.139" transform="translate(80.425 6.321)"/>
    <rect id="Rectangle_176" data-name="Rectangle 176" width="2.418" height="2.418" transform="translate(70.249 11.058)"/>
    <rect id="Rectangle_177" data-name="Rectangle 177" width="2.418" height="13.368" transform="translate(70.249 15.893)"/>
  </g>
</svg>
